<svg xmlns="http://www.w3.org/2000/svg" viewBox="0 0 720 1280" preserveAspectRatio="xMidYMid slice">
  <defs>
    <linearGradient id="bg" x1="0" y1="0" x2="1" y2="1">
      <stop offset="0" stop-color="#17100d"/>
      <stop offset=".48" stop-color="#090b0f"/>
      <stop offset="1" stop-color="#020305"/>
    </linearGradient>
    <radialGradient id="glow" cx="72%" cy="18%" r="58%">
      <stop offset="0" stop-color="#ff6b24" stop-opacity=".34"/>
      <stop offset=".48" stop-color="#ff6b24" stop-opacity=".08"/>
      <stop offset="1" stop-color="#ff6b24" stop-opacity="0"/>
    </radialGradient>
    <filter id="soft" x="-20%" y="-20%" width="140%" height="140%">
      <feGaussianBlur stdDeviation="7"/>
    </filter>
  </defs>
  <rect width="720" height="1280" fill="url(#bg)"/>
  <rect width="720" height="1280" fill="url(#glow)"/>
  <g opacity=".14" stroke="#ffffff" stroke-width="1">
    <path d="M36 160h648M36 320h648M36 480h648M36 640h648M36 800h648M36 960h648M36 1120h648"/>
    <path d="M120 40v1200M280 40v1200M440 40v1200M600 40v1200"/>
  </g>
  <g transform="translate(60 470)" fill="none" stroke-linecap="round" stroke-linejoin="round">
    <path d="M68 174c35-92 84-135 159-135h164c68 0 120 45 152 135" stroke="#ff7a2b" stroke-width="8" opacity=".9"/>
    <path d="M26 193h553c20 0 38 14 42 34l12 59H0l13-58c5-21 23-35 45-35z" stroke="#f4f4f4" stroke-width="5" opacity=".46"/>
    <path d="M128 193l52-72h271l56 72" stroke="#f4f4f4" stroke-width="4" opacity=".34"/>
    <circle cx="143" cy="292" r="42" stroke="#ffffff" stroke-width="7" opacity=".42"/>
    <circle cx="496" cy="292" r="42" stroke="#ffffff" stroke-width="7" opacity=".42"/>
    <path d="M220 250h190" stroke="#ff7a2b" stroke-width="5" opacity=".72"/>
  </g>
  <g filter="url(#soft)" opacity=".32">
    <path d="M470 310c85 32 133 90 145 173" stroke="#ff6b24" stroke-width="18" fill="none"/>
  </g>
  <path d="M0 0h720v1280H0z" fill="#000" opacity=".08"/>
</svg>
