<svg xmlns="http://www.w3.org/2000/svg" viewBox="0 0 720 1280" preserveAspectRatio="xMidYMid slice">
  <defs>
    <linearGradient id="bg" x1="0" y1="0" x2="1" y2="1">
      <stop offset="0" stop-color="#101318"/>
      <stop offset=".55" stop-color="#080a0e"/>
      <stop offset="1" stop-color="#030405"/>
    </linearGradient>
    <radialGradient id="glow" cx="78%" cy="24%" r="58%">
      <stop offset="0" stop-color="#ff8d35" stop-opacity=".26"/>
      <stop offset=".55" stop-color="#ff8d35" stop-opacity=".05"/>
      <stop offset="1" stop-color="#ff8d35" stop-opacity="0"/>
    </radialGradient>
  </defs>
  <rect width="720" height="1280" fill="url(#bg)"/>
  <rect width="720" height="1280" fill="url(#glow)"/>
  <g opacity=".1" stroke="#fff">
    <path d="M50 105h620v980H50z"/>
    <path d="M50 300h620M50 500h620M50 700h620M50 900h620"/>
  </g>
  <g transform="translate(86 250)" fill="none" stroke-linecap="round" stroke-linejoin="round">
    <rect x="22" y="20" width="230" height="150" rx="20" stroke="#fff" stroke-width="5" opacity=".28"/>
    <path d="M60 94h150M96 52v84M170 52v84" stroke="#ff8d35" stroke-width="7" opacity=".85"/>
    <path d="M340 40c84 0 152 68 152 152s-68 152-152 152-152-68-152-152S256 40 340 40z" stroke="#fff" stroke-width="5" opacity=".22"/>
    <path d="M262 194h156M340 116v156" stroke="#ff8d35" stroke-width="8" opacity=".85"/>
    <path d="M84 420h212c42 0 76 34 76 76v42H84z" stroke="#fff" stroke-width="5" opacity=".25"/>
    <path d="M118 420l38-88h126l38 88" stroke="#ff8d35" stroke-width="7" opacity=".78"/>
    <path d="M434 470c66-30 110-24 135 18 25 43 10 88-47 137" stroke="#fff" stroke-width="8" opacity=".23"/>
    <path d="M422 618c70 24 125 14 165-30" stroke="#ff8d35" stroke-width="9" opacity=".75"/>
  </g>
</svg>
