<svg xmlns="http://www.w3.org/2000/svg" viewBox="0 0 720 1280" preserveAspectRatio="xMidYMid slice">
  <defs>
    <linearGradient id="bg" x1="0" y1="0" x2="0" y2="1">
      <stop offset="0" stop-color="#15100b"/>
      <stop offset=".55" stop-color="#090b0f"/>
      <stop offset="1" stop-color="#020304"/>
    </linearGradient>
    <radialGradient id="glow" cx="50%" cy="34%" r="66%">
      <stop offset="0" stop-color="#ff8d35" stop-opacity=".28"/>
      <stop offset=".5" stop-color="#ff8d35" stop-opacity=".06"/>
      <stop offset="1" stop-color="#ff8d35" stop-opacity="0"/>
    </radialGradient>
  </defs>
  <rect width="720" height="1280" fill="url(#bg)"/>
  <rect width="720" height="1280" fill="url(#glow)"/>
  <g transform="translate(82 260)" fill="none" stroke-linecap="round">
    <path d="M58 405a245 245 0 1 1 490 0" stroke="#fff" stroke-width="12" opacity=".18"/>
    <path d="M58 405a245 245 0 0 1 416-175" stroke="#ff8d35" stroke-width="16" opacity=".78"/>
    <path d="M303 405 450 245" stroke="#ff5b1f" stroke-width="15"/>
    <circle cx="303" cy="405" r="24" fill="#ff8d35" stroke="none"/>
    <path d="M96 430h414" stroke="#fff" stroke-width="5" opacity=".24"/>
    <path d="M140 520h120M140 570h210M140 620h165" stroke="#ff8d35" stroke-width="7" opacity=".58"/>
    <path d="M390 520h95v100h-95zM515 470h42v150h-42" stroke="#fff" stroke-width="6" opacity=".22"/>
  </g>
  <g opacity=".12" stroke="#fff">
    <path d="M0 980c140-60 260-72 360-36s220 23 360-40"/>
    <path d="M0 1040c140-60 260-72 360-36s220 23 360-40"/>
  </g>
</svg>
