<svg xmlns="http://www.w3.org/2000/svg" viewBox="0 0 720 1280" preserveAspectRatio="xMidYMid slice">
  <defs>
    <linearGradient id="bg" x1="0" y1="0" x2="1" y2="1">
      <stop offset="0" stop-color="#1a0707"/>
      <stop offset=".52" stop-color="#0b0809"/>
      <stop offset="1" stop-color="#020304"/>
    </linearGradient>
    <radialGradient id="red" cx="78%" cy="30%" r="58%">
      <stop offset="0" stop-color="#ff3526" stop-opacity=".34"/>
      <stop offset=".52" stop-color="#ff5b1f" stop-opacity=".08"/>
      <stop offset="1" stop-color="#ff3526" stop-opacity="0"/>
    </radialGradient>
  </defs>
  <rect width="720" height="1280" fill="url(#bg)"/>
  <rect width="720" height="1280" fill="url(#red)"/>
  <g opacity=".13" stroke="#fff">
    <path d="M0 190h720M0 385h720M0 580h720M0 775h720M0 970h720"/>
    <path d="M110 0v1280M310 0v1280M510 0v1280"/>
  </g>
  <g transform="translate(120 245)" fill="none" stroke-linejoin="round" stroke-linecap="round">
    <path d="M240 30 470 430H10L240 30z" stroke="#ff5b1f" stroke-width="16" opacity=".92"/>
    <path d="M240 152v142" stroke="#fff" stroke-width="28" opacity=".6"/>
    <path d="M240 352h.1" stroke="#fff" stroke-width="32" opacity=".72"/>
  </g>
  <g transform="translate(70 780)" stroke="#ff5b1f" stroke-width="7" stroke-linecap="round" opacity=".74">
    <path d="M0 0h580"/>
    <path d="M48 54l62 62M110 54l-62 62"/>
    <path d="M248 54l62 62M310 54l-62 62"/>
    <path d="M448 54l62 62M510 54l-62 62"/>
  </g>
  <g fill="none" stroke="#fff" stroke-width="5" opacity=".18">
    <path d="M98 1090c78-50 162-70 253-60s178 45 263 105"/>
  </g>
</svg>
